<svg xmlns="http://www.w3.org/2000/svg" xmlns:xlink="http://www.w3.org/1999/xlink" width="200" zoomAndPan="magnify" viewBox="0 0 150 60" height="80" preserveAspectRatio="xMidYMid meet" version="1.0"><defs><g/><clipPath id="id1"><path d="M 1.730469 0.175781 L 34 0.175781 L 34 39 L 1.730469 39 Z M 1.730469 0.175781 " clip-rule="nonzero"/></clipPath><clipPath id="id2"><path d="M 36 15 L 48.007812 15 L 48.007812 51 L 36 51 Z M 36 15 " clip-rule="nonzero"/></clipPath><clipPath id="id3"><path d="M 1.730469 26 L 40 26 L 40 58.5 L 1.730469 58.5 Z M 1.730469 26 " clip-rule="nonzero"/></clipPath></defs><g clip-path="url(#id1)"><path fill="rgb(70.588684%, 85.879517%, 86.268616%)" d="M 9.144531 27.074219 C 11.523438 20.816406 17.617188 16.363281 24.757812 16.363281 C 25.167969 16.363281 29.40625 16.378906 29.808594 16.40625 L 29.808594 24.011719 C 29.410156 23.960938 25.171875 23.929688 24.757812 23.929688 C 21.324219 23.929688 18.335938 25.828125 16.800781 28.625 C 22.695312 30.5 27.929688 33.84375 32.066406 38.21875 C 33.164062 36.730469 33.8125 34.898438 33.8125 32.914062 L 33.8125 0.246094 L 29.832031 8.734375 L 26.960938 7.09375 C 25.597656 6.308594 23.917969 6.308594 22.554688 7.09375 L 3.714844 17.882812 C 2.351562 18.664062 1.511719 20.109375 1.511719 21.671875 L 1.511719 27.167969 C 2.910156 27.003906 4.328125 26.917969 5.773438 26.917969 C 6.910156 26.917969 8.035156 26.972656 9.144531 27.074219 " fill-opacity="1" fill-rule="nonzero"/></g><g clip-path="url(#id2)"><path fill="rgb(70.588684%, 85.879517%, 86.268616%)" d="M 45.800781 47.042969 C 47.164062 46.261719 48.003906 44.816406 48.003906 43.253906 L 48.003906 21.671875 C 48.003906 20.109375 47.164062 18.664062 45.800781 17.882812 L 41.441406 15.386719 L 41.441406 32.914062 C 41.441406 37.378906 39.660156 41.429688 36.765625 44.40625 C 37.929688 46.339844 38.914062 48.390625 39.695312 50.539062 L 45.800781 47.042969 " fill-opacity="1" fill-rule="nonzero"/></g><g clip-path="url(#id3)"><path fill="rgb(75.689697%, 90.19928%, 95.289612%)" d="M 3.714844 47.042969 L 22.554688 57.832031 C 23.917969 58.617188 25.597656 58.617188 26.960938 57.832031 L 39.695312 50.539062 C 38.914062 48.390625 37.929688 46.339844 36.765625 44.40625 C 33.730469 47.527344 29.472656 49.46875 24.757812 49.46875 C 15.542969 49.46875 8.074219 42.058594 8.074219 32.914062 C 8.074219 30.859375 8.453125 28.890625 9.144531 27.074219 C 8.035156 26.972656 6.910156 26.917969 5.773438 26.917969 C 4.328125 26.917969 2.910156 27.003906 1.511719 27.167969 L 1.511719 43.253906 C 1.511719 44.816406 2.351562 46.261719 3.714844 47.042969 " fill-opacity="1" fill-rule="nonzero"/></g><path fill="rgb(75.689697%, 90.19928%, 95.289612%)" d="M 16.800781 28.625 C 16.101562 29.898438 15.703125 31.359375 15.703125 32.914062 C 15.703125 37.878906 19.757812 41.902344 24.757812 41.902344 C 27.761719 41.902344 30.421875 40.449219 32.066406 38.21875 C 27.929688 33.84375 22.695312 30.5 16.800781 28.625 " fill-opacity="1" fill-rule="nonzero"/><g fill="rgb(0.779724%, 8.628845%, 13.328552%)" fill-opacity="1"><g transform="translate(51.161132, 39.75)"><g><path d="M 12.109375 -19.09375 L 12.109375 -4.515625 C 12.109375 -3.640625 11.945312 -2.898438 11.625 -2.296875 C 11.300781 -1.691406 10.867188 -1.207031 10.328125 -0.84375 C 9.785156 -0.488281 9.164062 -0.238281 8.46875 -0.09375 C 7.769531 0.0507812 7.046875 0.125 6.296875 0.125 C 5.921875 0.125 5.484375 0.0820312 4.984375 0 C 4.484375 -0.0703125 3.96875 -0.1875 3.4375 -0.34375 C 2.90625 -0.5 2.394531 -0.675781 1.90625 -0.875 C 1.414062 -1.082031 1 -1.316406 0.65625 -1.578125 L 1.953125 -3.625 C 2.117188 -3.507812 2.359375 -3.390625 2.671875 -3.265625 C 2.992188 -3.140625 3.335938 -3.019531 3.703125 -2.90625 C 4.078125 -2.800781 4.46875 -2.703125 4.875 -2.609375 C 5.28125 -2.523438 5.660156 -2.484375 6.015625 -2.484375 C 6.910156 -2.484375 7.625 -2.65625 8.15625 -3 C 8.695312 -3.351562 8.984375 -3.945312 9.015625 -4.78125 L 9.015625 -19.09375 Z M 12.109375 -19.09375 "/></g></g></g><g fill="rgb(0.779724%, 8.628845%, 13.328552%)" fill-opacity="1"><g transform="translate(64.306529, 39.75)"><g><path d="M 8.84375 -14.453125 C 9.75 -14.367188 10.570312 -14.125 11.3125 -13.71875 C 12.050781 -13.3125 12.679688 -12.785156 13.203125 -12.140625 C 13.722656 -11.492188 14.125 -10.753906 14.40625 -9.921875 C 14.6875 -9.097656 14.828125 -8.238281 14.828125 -7.34375 C 14.828125 -6.9375 14.800781 -6.53125 14.75 -6.125 L 6.046875 -6.125 L 6.046875 -8.359375 L 11.90625 -8.359375 C 11.90625 -8.796875 11.832031 -9.21875 11.6875 -9.625 C 11.550781 -10.03125 11.34375 -10.40625 11.0625 -10.75 C 10.78125 -11.101562 10.453125 -11.394531 10.078125 -11.625 C 9.703125 -11.863281 9.289062 -12.007812 8.84375 -12.0625 Z M 8.734375 -2.390625 C 8.921875 -2.390625 9.15625 -2.410156 9.4375 -2.453125 C 9.71875 -2.492188 10.015625 -2.566406 10.328125 -2.671875 C 10.640625 -2.785156 10.953125 -2.925781 11.265625 -3.09375 C 11.578125 -3.269531 11.851562 -3.472656 12.09375 -3.703125 L 13.203125 -2 C 12.640625 -1.3125 11.984375 -0.785156 11.234375 -0.421875 C 10.492188 -0.0664062 9.550781 0.109375 8.40625 0.109375 C 7.476562 0.109375 6.609375 -0.0820312 5.796875 -0.46875 C 4.984375 -0.851562 4.285156 -1.375 3.703125 -2.03125 C 3.128906 -2.6875 2.671875 -3.453125 2.328125 -4.328125 C 1.992188 -5.210938 1.828125 -6.164062 1.828125 -7.1875 C 1.828125 -8.15625 1.984375 -9.066406 2.296875 -9.921875 C 2.609375 -10.785156 3.035156 -11.539062 3.578125 -12.1875 C 4.117188 -12.84375 4.75 -13.375 5.46875 -13.78125 C 6.1875 -14.1875 6.960938 -14.414062 7.796875 -14.46875 L 7.796875 -12.03125 C 7.171875 -11.914062 6.65625 -11.660156 6.25 -11.265625 C 5.84375 -10.878906 5.523438 -10.4375 5.296875 -9.9375 C 5.066406 -9.4375 4.90625 -8.925781 4.8125 -8.40625 C 4.71875 -7.882812 4.671875 -7.4375 4.671875 -7.0625 C 4.671875 -6.394531 4.75 -5.78125 4.90625 -5.21875 C 5.070312 -4.65625 5.320312 -4.164062 5.65625 -3.75 C 6 -3.332031 6.421875 -3 6.921875 -2.75 C 7.421875 -2.507812 8.023438 -2.390625 8.734375 -2.390625 Z M 8.734375 -2.390625 "/></g></g></g><g fill="rgb(0.779724%, 8.628845%, 13.328552%)" fill-opacity="1"><g transform="translate(79.964842, 39.75)"><g><path d="M 2.1875 -19.734375 L 5.25 -19.734375 L 5.25 -1.703125 C 5.238281 -1.460938 5.210938 -1.191406 5.171875 -0.890625 C 5.140625 -0.585938 5.117188 -0.289062 5.109375 0 L 2.1875 0 Z M 14.703125 -9.984375 C 14.898438 -9.203125 15 -8.347656 15 -7.421875 C 15 -6.453125 14.882812 -5.507812 14.65625 -4.59375 C 14.4375 -3.675781 14.09375 -2.867188 13.625 -2.171875 C 13.15625 -1.472656 12.566406 -0.914062 11.859375 -0.5 C 11.160156 -0.0820312 10.335938 0.125 9.390625 0.125 C 8.796875 0.125 8.226562 0.0546875 7.6875 -0.078125 C 7.144531 -0.210938 6.679688 -0.398438 6.296875 -0.640625 L 6.296875 -3.28125 C 6.546875 -2.988281 6.84375 -2.75 7.1875 -2.5625 C 7.539062 -2.375 7.929688 -2.28125 8.359375 -2.28125 C 8.859375 -2.28125 9.316406 -2.40625 9.734375 -2.65625 C 10.148438 -2.914062 10.503906 -3.257812 10.796875 -3.6875 C 11.097656 -4.125 11.335938 -4.640625 11.515625 -5.234375 C 11.691406 -5.828125 11.78125 -6.460938 11.78125 -7.140625 C 11.78125 -7.796875 11.695312 -8.421875 11.53125 -9.015625 C 11.375 -9.609375 11.15625 -10.132812 10.875 -10.59375 C 10.601562 -11.050781 10.265625 -11.414062 9.859375 -11.6875 C 9.453125 -11.957031 8.992188 -12.09375 8.484375 -12.09375 C 8.046875 -12.09375 7.644531 -12 7.28125 -11.8125 C 6.914062 -11.632812 6.585938 -11.378906 6.296875 -11.046875 L 6.296875 -13.765625 C 6.679688 -13.984375 7.109375 -14.148438 7.578125 -14.265625 C 8.054688 -14.390625 8.550781 -14.453125 9.0625 -14.453125 C 9.625 -14.453125 10.191406 -14.375 10.765625 -14.21875 C 11.335938 -14.0625 11.875 -13.804688 12.375 -13.453125 C 12.875 -13.097656 13.332031 -12.632812 13.75 -12.0625 C 14.164062 -11.488281 14.484375 -10.796875 14.703125 -9.984375 Z M 14.703125 -9.984375 "/></g></g></g><g fill="rgb(0.779724%, 8.628845%, 13.328552%)" fill-opacity="1"><g transform="translate(95.039346, 39.75)"><g><path d="M 11.703125 -10.609375 C 11.453125 -10.921875 11.101562 -11.207031 10.65625 -11.46875 C 10.207031 -11.726562 9.609375 -11.882812 8.859375 -11.9375 L 8.859375 -14.375 C 9.796875 -14.320312 10.597656 -14.117188 11.265625 -13.765625 C 11.929688 -13.421875 12.535156 -12.921875 13.078125 -12.265625 Z M 8.859375 -2.40625 C 9.472656 -2.476562 9.992188 -2.628906 10.421875 -2.859375 C 10.859375 -3.085938 11.269531 -3.351562 11.65625 -3.65625 L 12.796875 -2 C 12.273438 -1.34375 11.707031 -0.835938 11.09375 -0.484375 C 10.488281 -0.140625 9.742188 0.0546875 8.859375 0.109375 Z M 1.78125 -7.15625 C 1.78125 -8.125 1.914062 -9.03125 2.1875 -9.875 C 2.46875 -10.71875 2.878906 -11.460938 3.421875 -12.109375 C 3.960938 -12.753906 4.601562 -13.273438 5.34375 -13.671875 C 6.082031 -14.066406 6.910156 -14.300781 7.828125 -14.375 L 7.828125 -11.90625 C 6.972656 -11.71875 6.289062 -11.195312 5.78125 -10.34375 C 5.28125 -9.488281 5.03125 -8.453125 5.03125 -7.234375 C 5.03125 -6.609375 5.09375 -6.019531 5.21875 -5.46875 C 5.34375 -4.914062 5.523438 -4.425781 5.765625 -4 C 6.003906 -3.582031 6.296875 -3.226562 6.640625 -2.9375 C 6.984375 -2.65625 7.378906 -2.476562 7.828125 -2.40625 L 7.828125 0.109375 C 6.890625 0.0546875 6.046875 -0.164062 5.296875 -0.5625 C 4.554688 -0.96875 3.921875 -1.492188 3.390625 -2.140625 C 2.867188 -2.796875 2.46875 -3.554688 2.1875 -4.421875 C 1.914062 -5.285156 1.78125 -6.195312 1.78125 -7.15625 Z M 1.78125 -7.15625 "/></g></g></g><g fill="rgb(0.779724%, 8.628845%, 13.328552%)" fill-opacity="1"><g transform="translate(108.692404, 39.75)"><g><path d="M 8.90625 -14.390625 C 9.84375 -14.347656 10.691406 -14.125 11.453125 -13.71875 C 12.210938 -13.320312 12.847656 -12.796875 13.359375 -12.140625 C 13.878906 -11.492188 14.28125 -10.738281 14.5625 -9.875 C 14.851562 -9.007812 15 -8.085938 15 -7.109375 C 15 -6.128906 14.851562 -5.210938 14.5625 -4.359375 C 14.269531 -3.503906 13.859375 -2.757812 13.328125 -2.125 C 12.804688 -1.488281 12.164062 -0.972656 11.40625 -0.578125 C 10.644531 -0.191406 9.8125 0.0351562 8.90625 0.109375 L 8.90625 -2.34375 C 9.757812 -2.519531 10.453125 -3.046875 10.984375 -3.921875 C 11.515625 -4.804688 11.78125 -5.867188 11.78125 -7.109375 C 11.78125 -7.734375 11.71875 -8.320312 11.59375 -8.875 C 11.46875 -9.425781 11.273438 -9.921875 11.015625 -10.359375 C 10.765625 -10.796875 10.460938 -11.160156 10.109375 -11.453125 C 9.753906 -11.742188 9.351562 -11.929688 8.90625 -12.015625 Z M 1.828125 -7.15625 C 1.828125 -8.144531 1.96875 -9.0625 2.25 -9.90625 C 2.539062 -10.75 2.953125 -11.488281 3.484375 -12.125 C 4.023438 -12.757812 4.664062 -13.269531 5.40625 -13.65625 C 6.15625 -14.050781 6.976562 -14.289062 7.875 -14.375 L 7.875 -12.015625 C 7.03125 -11.828125 6.351562 -11.289062 5.84375 -10.40625 C 5.332031 -9.53125 5.078125 -8.472656 5.078125 -7.234375 C 5.078125 -6.609375 5.140625 -6.015625 5.265625 -5.453125 C 5.390625 -4.898438 5.570312 -4.398438 5.8125 -3.953125 C 6.050781 -3.515625 6.34375 -3.148438 6.6875 -2.859375 C 7.039062 -2.578125 7.4375 -2.40625 7.875 -2.34375 L 7.875 0.109375 C 6.9375 0.0351562 6.09375 -0.195312 5.34375 -0.59375 C 4.601562 -0.988281 3.972656 -1.507812 3.453125 -2.15625 C 2.929688 -2.800781 2.53125 -3.554688 2.25 -4.421875 C 1.96875 -5.285156 1.828125 -6.195312 1.828125 -7.15625 Z M 1.828125 -7.15625 "/></g></g></g><g fill="rgb(0.779724%, 8.628845%, 13.328552%)" fill-opacity="1"><g transform="translate(124.299953, 39.75)"><g><path d="M 5.25 0 L 2.15625 0 L 2.15625 -14.328125 L 5.25 -14.328125 Z M 5.53125 -18.890625 C 5.53125 -18.378906 5.351562 -17.953125 5 -17.609375 C 4.644531 -17.265625 4.210938 -17.09375 3.703125 -17.09375 C 3.203125 -17.09375 2.773438 -17.269531 2.421875 -17.625 C 2.078125 -17.976562 1.90625 -18.398438 1.90625 -18.890625 C 1.90625 -19.398438 2.082031 -19.832031 2.4375 -20.1875 C 2.789062 -20.539062 3.210938 -20.71875 3.703125 -20.71875 C 4.210938 -20.71875 4.644531 -20.539062 5 -20.1875 C 5.351562 -19.832031 5.53125 -19.398438 5.53125 -18.890625 Z M 5.53125 -18.890625 "/></g></g></g><g fill="rgb(0.779724%, 8.628845%, 13.328552%)" fill-opacity="1"><g transform="translate(130.490411, 39.75)"><g><path d="M 4.921875 -14.328125 L 5.25 -12.875 L 5.25 0 L 2.1875 0 L 2.1875 -14.328125 Z M 12.84375 -12.75 C 13.132812 -12.457031 13.359375 -12.117188 13.515625 -11.734375 C 13.679688 -11.359375 13.800781 -10.960938 13.875 -10.546875 C 13.945312 -10.128906 13.992188 -9.707031 14.015625 -9.28125 C 14.035156 -8.863281 14.046875 -8.453125 14.046875 -8.046875 L 14.046875 0 L 10.9375 0 L 10.9375 -7.796875 C 10.9375 -8.367188 10.910156 -8.914062 10.859375 -9.4375 C 10.816406 -9.96875 10.703125 -10.4375 10.515625 -10.84375 C 10.328125 -11.25 10.070312 -11.566406 9.75 -11.796875 C 9.425781 -12.023438 8.976562 -12.140625 8.40625 -12.140625 C 8.164062 -12.140625 7.847656 -12.097656 7.453125 -12.015625 C 7.054688 -11.941406 6.671875 -11.820312 6.296875 -11.65625 L 6.296875 -13.609375 C 6.753906 -13.847656 7.25 -14.050781 7.78125 -14.21875 C 8.3125 -14.382812 8.832031 -14.46875 9.34375 -14.46875 C 10.101562 -14.46875 10.742188 -14.3125 11.265625 -14 C 11.796875 -13.6875 12.320312 -13.269531 12.84375 -12.75 Z M 12.84375 -12.75 "/></g></g></g></svg>