<svg xmlns="http://www.w3.org/2000/svg" xmlns:xlink="http://www.w3.org/1999/xlink" width="170" zoomAndPan="magnify" viewBox="0 0 127.5 37.5" height="50" preserveAspectRatio="xMidYMid meet" version="1.0"><defs><g/><clipPath id="6df772b3c9"><path d="M 0.59375 13 L 52.503906 13 L 52.503906 33.371094 L 0.59375 33.371094 Z M 0.59375 13 " clip-rule="nonzero"/></clipPath><clipPath id="ccd6980c52"><path d="M 10 2.699219 L 37 2.699219 L 37 28 L 10 28 Z M 10 2.699219 " clip-rule="nonzero"/></clipPath></defs><g clip-path="url(#6df772b3c9)"><path fill="#499557" d="M 52.503906 13.003906 L 38.101562 13.125 L 41.597656 16.828125 L 21.765625 28.75 L 18.503906 23.953125 L 0.59375 33.363281 L 16.828125 27.113281 L 20.609375 33.363281 L 43.957031 20.96875 L 45.40625 25.507812 L 52.503906 13.003906 " fill-opacity="1" fill-rule="nonzero"/></g><g clip-path="url(#ccd6980c52)"><path fill="#041730" d="M 27.179688 24.574219 L 30.851562 22.363281 L 30.851562 8.089844 L 27.179688 8.089844 Z M 32.582031 2.703125 L 32.582031 21.324219 L 36.253906 19.117188 L 36.253906 2.703125 Z M 21.777344 27.359375 L 22 27.6875 L 25.449219 25.613281 L 25.449219 12.277344 L 21.777344 12.277344 Z M 10.972656 27.015625 L 14.648438 25.085938 L 14.648438 11.953125 L 10.972656 11.953125 Z M 16.375 24.179688 L 18.761719 22.925781 L 20.046875 24.820312 L 20.046875 7.425781 L 16.375 7.425781 L 16.375 24.179688 " fill-opacity="1" fill-rule="nonzero"/></g><g fill="#041730" fill-opacity="1"><g transform="translate(52.472295, 20.866444)"><g><path d="M 4.65625 -10.828125 L 4.65625 -7.3125 L 10.796875 -7.3125 L 10.796875 -4.84375 L 4.65625 -4.84375 L 4.65625 0 L 1.578125 0 L 1.578125 -13.28125 L 11.625 -13.28125 L 11.625 -10.828125 Z M 4.65625 -10.828125 "/></g></g></g><g fill="#041730" fill-opacity="1"><g transform="translate(65.724383, 20.866444)"><g><path d="M 1.578125 -13.28125 L 4.65625 -13.28125 L 4.65625 0 L 1.578125 0 Z M 1.578125 -13.28125 "/></g></g></g><g fill="#041730" fill-opacity="1"><g transform="translate(73.071977, 20.866444)"><g><path d="M 13.765625 -13.28125 L 13.765625 0 L 11.234375 0 L 4.609375 -8.0625 L 4.609375 0 L 1.578125 0 L 1.578125 -13.28125 L 4.125 -13.28125 L 10.71875 -5.21875 L 10.71875 -13.28125 Z M 13.765625 -13.28125 "/></g></g></g><g fill="#041730" fill-opacity="1"><g transform="translate(89.532616, 20.866444)"><g><path d="M 11.328125 -6.90625 C 12.085938 -6.664062 12.679688 -6.265625 13.109375 -5.703125 C 13.546875 -5.140625 13.765625 -4.445312 13.765625 -3.625 C 13.765625 -2.457031 13.3125 -1.5625 12.40625 -0.9375 C 11.5 -0.3125 10.179688 0 8.453125 0 L 1.578125 0 L 1.578125 -13.28125 L 8.0625 -13.28125 C 9.6875 -13.28125 10.929688 -12.96875 11.796875 -12.34375 C 12.660156 -11.726562 13.09375 -10.890625 13.09375 -9.828125 C 13.09375 -9.179688 12.9375 -8.601562 12.625 -8.09375 C 12.320312 -7.59375 11.890625 -7.195312 11.328125 -6.90625 Z M 4.625 -10.96875 L 4.625 -7.84375 L 7.6875 -7.84375 C 8.445312 -7.84375 9.019531 -7.972656 9.40625 -8.234375 C 9.800781 -8.503906 10 -8.898438 10 -9.421875 C 10 -9.929688 9.800781 -10.316406 9.40625 -10.578125 C 9.019531 -10.835938 8.445312 -10.96875 7.6875 -10.96875 Z M 8.21875 -2.3125 C 9.03125 -2.3125 9.640625 -2.441406 10.046875 -2.703125 C 10.460938 -2.972656 10.671875 -3.390625 10.671875 -3.953125 C 10.671875 -5.046875 9.851562 -5.59375 8.21875 -5.59375 L 4.625 -5.59375 L 4.625 -2.3125 Z M 8.21875 -2.3125 "/></g></g></g><g fill="#041730" fill-opacity="1"><g transform="translate(105.176881, 20.866444)"><g><path d="M 1.578125 -13.28125 L 4.65625 -13.28125 L 4.65625 0 L 1.578125 0 Z M 1.578125 -13.28125 "/></g></g></g><g fill="#041730" fill-opacity="1"><g transform="translate(112.524476, 20.866444)"><g><path d="M 12.34375 -2.5 L 12.34375 0 L 0.71875 0 L 0.71875 -2 L 8.015625 -10.78125 L 0.875 -10.78125 L 0.875 -13.28125 L 12.0625 -13.28125 L 12.0625 -11.296875 L 4.78125 -2.5 Z M 12.34375 -2.5 "/></g></g></g><g fill="#499557" fill-opacity="1"><g transform="translate(52.472295, 31.521814)"><g><path d="M 2.109375 0.078125 C 1.734375 0.078125 1.367188 0.03125 1.015625 -0.0625 C 0.671875 -0.164062 0.394531 -0.300781 0.1875 -0.46875 L 0.5625 -1.296875 C 0.757812 -1.140625 1 -1.015625 1.28125 -0.921875 C 1.5625 -0.835938 1.84375 -0.796875 2.125 -0.796875 C 2.425781 -0.796875 2.648438 -0.84375 2.796875 -0.9375 C 2.953125 -1.03125 3.03125 -1.148438 3.03125 -1.296875 C 3.03125 -1.410156 2.984375 -1.503906 2.890625 -1.578125 C 2.804688 -1.648438 2.695312 -1.707031 2.5625 -1.75 C 2.425781 -1.800781 2.238281 -1.851562 2 -1.90625 C 1.644531 -1.988281 1.351562 -2.070312 1.125 -2.15625 C 0.894531 -2.25 0.695312 -2.390625 0.53125 -2.578125 C 0.363281 -2.765625 0.28125 -3.015625 0.28125 -3.328125 C 0.28125 -3.609375 0.351562 -3.859375 0.5 -4.078125 C 0.65625 -4.304688 0.878906 -4.484375 1.171875 -4.609375 C 1.472656 -4.742188 1.84375 -4.8125 2.28125 -4.8125 C 2.582031 -4.8125 2.875 -4.773438 3.15625 -4.703125 C 3.445312 -4.628906 3.703125 -4.523438 3.921875 -4.390625 L 3.578125 -3.5625 C 3.140625 -3.800781 2.703125 -3.921875 2.265625 -3.921875 C 1.960938 -3.921875 1.738281 -3.867188 1.59375 -3.765625 C 1.445312 -3.671875 1.375 -3.546875 1.375 -3.390625 C 1.375 -3.222656 1.457031 -3.097656 1.625 -3.015625 C 1.789062 -2.941406 2.046875 -2.867188 2.390625 -2.796875 C 2.753906 -2.710938 3.050781 -2.625 3.28125 -2.53125 C 3.507812 -2.445312 3.707031 -2.3125 3.875 -2.125 C 4.039062 -1.945312 4.125 -1.703125 4.125 -1.390625 C 4.125 -1.117188 4.046875 -0.867188 3.890625 -0.640625 C 3.742188 -0.421875 3.519531 -0.242188 3.21875 -0.109375 C 2.914062 0.015625 2.546875 0.078125 2.109375 0.078125 Z M 2.109375 0.078125 "/></g></g></g><g fill="#499557" fill-opacity="1"><g transform="translate(60.598783, 31.521814)"><g><path d="M 2.84375 0.078125 C 2.351562 0.078125 1.910156 -0.0234375 1.515625 -0.234375 C 1.128906 -0.441406 0.820312 -0.734375 0.59375 -1.109375 C 0.375 -1.484375 0.265625 -1.898438 0.265625 -2.359375 C 0.265625 -2.828125 0.375 -3.242188 0.59375 -3.609375 C 0.820312 -3.984375 1.128906 -4.273438 1.515625 -4.484375 C 1.910156 -4.703125 2.351562 -4.8125 2.84375 -4.8125 C 3.332031 -4.8125 3.773438 -4.703125 4.171875 -4.484375 C 4.566406 -4.273438 4.875 -3.984375 5.09375 -3.609375 C 5.320312 -3.242188 5.4375 -2.828125 5.4375 -2.359375 C 5.4375 -1.898438 5.320312 -1.484375 5.09375 -1.109375 C 4.875 -0.734375 4.566406 -0.441406 4.171875 -0.234375 C 3.773438 -0.0234375 3.332031 0.078125 2.84375 0.078125 Z M 2.84375 -0.84375 C 3.125 -0.84375 3.375 -0.90625 3.59375 -1.03125 C 3.820312 -1.164062 4 -1.347656 4.125 -1.578125 C 4.257812 -1.804688 4.328125 -2.066406 4.328125 -2.359375 C 4.328125 -2.648438 4.257812 -2.910156 4.125 -3.140625 C 4 -3.367188 3.820312 -3.546875 3.59375 -3.671875 C 3.375 -3.804688 3.125 -3.875 2.84375 -3.875 C 2.570312 -3.875 2.320312 -3.804688 2.09375 -3.671875 C 1.863281 -3.546875 1.6875 -3.367188 1.5625 -3.140625 C 1.4375 -2.910156 1.375 -2.648438 1.375 -2.359375 C 1.375 -2.066406 1.4375 -1.804688 1.5625 -1.578125 C 1.6875 -1.347656 1.863281 -1.164062 2.09375 -1.03125 C 2.320312 -0.90625 2.570312 -0.84375 2.84375 -0.84375 Z M 2.84375 -0.84375 "/></g></g></g><g fill="#499557" fill-opacity="1"><g transform="translate(70.11402, 31.521814)"><g><path d="M 0.5625 -4.71875 L 1.65625 -4.71875 L 1.65625 -0.890625 L 4.015625 -0.890625 L 4.015625 0 L 0.5625 0 Z M 0.5625 -4.71875 "/></g></g></g><g fill="#499557" fill-opacity="1"><g transform="translate(78.0113, 31.521814)"><g><path d="M 2.65625 0.078125 C 1.976562 0.078125 1.453125 -0.109375 1.078125 -0.484375 C 0.703125 -0.859375 0.515625 -1.390625 0.515625 -2.078125 L 0.515625 -4.71875 L 1.609375 -4.71875 L 1.609375 -2.125 C 1.609375 -1.269531 1.960938 -0.84375 2.671875 -0.84375 C 3.003906 -0.84375 3.257812 -0.945312 3.4375 -1.15625 C 3.625 -1.363281 3.71875 -1.6875 3.71875 -2.125 L 3.71875 -4.71875 L 4.796875 -4.71875 L 4.796875 -2.078125 C 4.796875 -1.390625 4.609375 -0.859375 4.234375 -0.484375 C 3.859375 -0.109375 3.332031 0.078125 2.65625 0.078125 Z M 2.65625 0.078125 "/></g></g></g><g fill="#499557" fill-opacity="1"><g transform="translate(87.149014, 31.521814)"><g><path d="M 1.53125 -3.828125 L 0.03125 -3.828125 L 0.03125 -4.71875 L 4.140625 -4.71875 L 4.140625 -3.828125 L 2.625 -3.828125 L 2.625 0 L 1.53125 0 Z M 1.53125 -3.828125 "/></g></g></g><g fill="#499557" fill-opacity="1"><g transform="translate(95.140674, 31.521814)"><g><path d="M 0.5625 -4.71875 L 1.65625 -4.71875 L 1.65625 0 L 0.5625 0 Z M 0.5625 -4.71875 "/></g></g></g><g fill="#499557" fill-opacity="1"><g transform="translate(101.177298, 31.521814)"><g><path d="M 2.84375 0.078125 C 2.351562 0.078125 1.910156 -0.0234375 1.515625 -0.234375 C 1.128906 -0.441406 0.820312 -0.734375 0.59375 -1.109375 C 0.375 -1.484375 0.265625 -1.898438 0.265625 -2.359375 C 0.265625 -2.828125 0.375 -3.242188 0.59375 -3.609375 C 0.820312 -3.984375 1.128906 -4.273438 1.515625 -4.484375 C 1.910156 -4.703125 2.351562 -4.8125 2.84375 -4.8125 C 3.332031 -4.8125 3.773438 -4.703125 4.171875 -4.484375 C 4.566406 -4.273438 4.875 -3.984375 5.09375 -3.609375 C 5.320312 -3.242188 5.4375 -2.828125 5.4375 -2.359375 C 5.4375 -1.898438 5.320312 -1.484375 5.09375 -1.109375 C 4.875 -0.734375 4.566406 -0.441406 4.171875 -0.234375 C 3.773438 -0.0234375 3.332031 0.078125 2.84375 0.078125 Z M 2.84375 -0.84375 C 3.125 -0.84375 3.375 -0.90625 3.59375 -1.03125 C 3.820312 -1.164062 4 -1.347656 4.125 -1.578125 C 4.257812 -1.804688 4.328125 -2.066406 4.328125 -2.359375 C 4.328125 -2.648438 4.257812 -2.910156 4.125 -3.140625 C 4 -3.367188 3.820312 -3.546875 3.59375 -3.671875 C 3.375 -3.804688 3.125 -3.875 2.84375 -3.875 C 2.570312 -3.875 2.320312 -3.804688 2.09375 -3.671875 C 1.863281 -3.546875 1.6875 -3.367188 1.5625 -3.140625 C 1.4375 -2.910156 1.375 -2.648438 1.375 -2.359375 C 1.375 -2.066406 1.4375 -1.804688 1.5625 -1.578125 C 1.6875 -1.347656 1.863281 -1.164062 2.09375 -1.03125 C 2.320312 -0.90625 2.570312 -0.84375 2.84375 -0.84375 Z M 2.84375 -0.84375 "/></g></g></g><g fill="#499557" fill-opacity="1"><g transform="translate(110.692532, 31.521814)"><g><path d="M 4.890625 -4.71875 L 4.890625 0 L 4 0 L 1.640625 -2.875 L 1.640625 0 L 0.5625 0 L 0.5625 -4.71875 L 1.46875 -4.71875 L 3.8125 -1.859375 L 3.8125 -4.71875 Z M 4.890625 -4.71875 "/></g></g></g><g fill="#499557" fill-opacity="1"><g transform="translate(119.96507, 31.521814)"><g><path d="M 2.109375 0.078125 C 1.734375 0.078125 1.367188 0.03125 1.015625 -0.0625 C 0.671875 -0.164062 0.394531 -0.300781 0.1875 -0.46875 L 0.5625 -1.296875 C 0.757812 -1.140625 1 -1.015625 1.28125 -0.921875 C 1.5625 -0.835938 1.84375 -0.796875 2.125 -0.796875 C 2.425781 -0.796875 2.648438 -0.84375 2.796875 -0.9375 C 2.953125 -1.03125 3.03125 -1.148438 3.03125 -1.296875 C 3.03125 -1.410156 2.984375 -1.503906 2.890625 -1.578125 C 2.804688 -1.648438 2.695312 -1.707031 2.5625 -1.75 C 2.425781 -1.800781 2.238281 -1.851562 2 -1.90625 C 1.644531 -1.988281 1.351562 -2.070312 1.125 -2.15625 C 0.894531 -2.25 0.695312 -2.390625 0.53125 -2.578125 C 0.363281 -2.765625 0.28125 -3.015625 0.28125 -3.328125 C 0.28125 -3.609375 0.351562 -3.859375 0.5 -4.078125 C 0.65625 -4.304688 0.878906 -4.484375 1.171875 -4.609375 C 1.472656 -4.742188 1.84375 -4.8125 2.28125 -4.8125 C 2.582031 -4.8125 2.875 -4.773438 3.15625 -4.703125 C 3.445312 -4.628906 3.703125 -4.523438 3.921875 -4.390625 L 3.578125 -3.5625 C 3.140625 -3.800781 2.703125 -3.921875 2.265625 -3.921875 C 1.960938 -3.921875 1.738281 -3.867188 1.59375 -3.765625 C 1.445312 -3.671875 1.375 -3.546875 1.375 -3.390625 C 1.375 -3.222656 1.457031 -3.097656 1.625 -3.015625 C 1.789062 -2.941406 2.046875 -2.867188 2.390625 -2.796875 C 2.753906 -2.710938 3.050781 -2.625 3.28125 -2.53125 C 3.507812 -2.445312 3.707031 -2.3125 3.875 -2.125 C 4.039062 -1.945312 4.125 -1.703125 4.125 -1.390625 C 4.125 -1.117188 4.046875 -0.867188 3.890625 -0.640625 C 3.742188 -0.421875 3.519531 -0.242188 3.21875 -0.109375 C 2.914062 0.015625 2.546875 0.078125 2.109375 0.078125 Z M 2.109375 0.078125 "/></g></g></g></svg>