<svg xmlns="http://www.w3.org/2000/svg" width="180" viewBox="0 0 180 45" height="45" version="1.0"><path fill="#002E5B" d="M 171.152344 34.96875 C 169.996094 34.96875 169.011719 34.554688 168.199219 33.730469 C 167.371094 32.917969 166.957031 31.9375 166.957031 30.78125 L 166.957031 26.617188 L 172.542969 26.617188 L 172.542969 23.820312 L 166.957031 23.820312 L 166.957031 16.855469 L 164.175781 16.855469 L 164.175781 30.78125 C 164.175781 32.707031 164.855469 34.351562 166.210938 35.71875 C 167.578125 37.070312 169.226562 37.746094 171.152344 37.746094 L 173.9375 37.746094 L 173.9375 34.96875 Z M 171.152344 34.96875"/><path fill="#2D3035" d="M 43.261719 29.628906 C 43.261719 28.992188 43.324219 28.367188 43.445312 27.75 C 43.570312 27.132812 43.78125 26.585938 44.082031 26.113281 C 44.378906 25.640625 44.777344 25.253906 45.269531 24.957031 C 45.765625 24.65625 46.382812 24.507812 47.125 24.507812 C 47.867188 24.507812 48.492188 24.65625 48.996094 24.957031 C 49.5 25.253906 49.902344 25.640625 50.203125 26.113281 C 50.5 26.585938 50.710938 27.132812 50.835938 27.75 C 50.960938 28.367188 51.023438 28.992188 51.023438 29.628906 C 51.023438 30.269531 50.960938 30.890625 50.835938 31.496094 C 50.710938 32.105469 50.5 32.648438 50.203125 33.132812 C 49.902344 33.617188 49.5 34.003906 48.996094 34.289062 C 48.492188 34.578125 47.867188 34.722656 47.125 34.722656 C 46.382812 34.722656 45.765625 34.578125 45.269531 34.289062 C 44.777344 34.003906 44.378906 33.617188 44.082031 33.132812 C 43.78125 32.648438 43.570312 32.105469 43.445312 31.496094 C 43.324219 30.890625 43.261719 30.269531 43.261719 29.628906 Z M 38.871094 29.628906 C 38.871094 30.90625 39.066406 32.058594 39.457031 33.085938 C 39.851562 34.117188 40.40625 34.996094 41.128906 35.726562 C 41.851562 36.457031 42.714844 37.015625 43.726562 37.40625 C 44.734375 37.796875 45.867188 37.992188 47.125 37.992188 C 48.382812 37.992188 49.523438 37.796875 50.542969 37.40625 C 51.5625 37.015625 52.433594 36.457031 53.15625 35.726562 C 53.875 34.996094 54.433594 34.117188 54.824219 33.085938 C 55.214844 32.058594 55.414062 30.90625 55.414062 29.628906 C 55.414062 28.355469 55.214844 27.199219 54.824219 26.160156 C 54.433594 25.121094 53.875 24.234375 53.15625 23.503906 C 52.433594 22.777344 51.5625 22.210938 50.542969 21.808594 C 49.523438 21.40625 48.382812 21.207031 47.125 21.207031 C 45.867188 21.207031 44.734375 21.40625 43.726562 21.808594 C 42.714844 22.210938 41.851562 22.777344 41.128906 23.503906 C 40.40625 24.234375 39.851562 25.121094 39.457031 26.160156 C 39.066406 27.199219 38.871094 28.355469 38.871094 29.628906 Z M 58.257812 21.640625 L 58.257812 37.59375 L 62.648438 37.59375 L 62.648438 29.230469 C 62.648438 27.605469 62.914062 26.4375 63.449219 25.726562 C 63.988281 25.019531 64.851562 24.664062 66.046875 24.664062 C 67.097656 24.664062 67.832031 24.988281 68.242188 25.636719 C 68.65625 26.28125 68.863281 27.265625 68.863281 28.582031 L 68.863281 37.59375 L 73.25 37.59375 L 73.25 27.78125 C 73.25 26.792969 73.164062 25.890625 72.988281 25.078125 C 72.8125 24.265625 72.511719 23.578125 72.078125 23.011719 C 71.644531 22.445312 71.050781 22.003906 70.300781 21.683594 C 69.546875 21.367188 68.582031 21.207031 67.410156 21.207031 C 66.480469 21.207031 65.574219 21.417969 64.6875 21.839844 C 63.800781 22.261719 63.078125 22.933594 62.523438 23.859375 L 62.429688 23.859375 L 62.429688 21.640625 Z M 79.992188 32.40625 L 75.816406 32.40625 C 75.859375 33.476562 76.101562 34.367188 76.542969 35.078125 C 76.988281 35.785156 77.554688 36.359375 78.246094 36.789062 C 78.9375 37.222656 79.722656 37.53125 80.609375 37.714844 C 81.496094 37.902344 82.402344 37.992188 83.332031 37.992188 C 84.238281 37.992188 85.128906 37.90625 86.003906 37.730469 C 86.882812 37.554688 87.660156 37.253906 88.339844 36.820312 C 89.019531 36.386719 89.570312 35.816406 89.992188 35.109375 C 90.417969 34.398438 90.628906 33.519531 90.628906 32.46875 C 90.628906 31.730469 90.484375 31.105469 90.195312 30.601562 C 89.90625 30.097656 89.523438 29.675781 89.050781 29.335938 C 88.578125 29 88.035156 28.726562 87.429688 28.519531 C 86.820312 28.3125 86.195312 28.140625 85.558594 27.996094 C 84.9375 27.851562 84.332031 27.71875 83.734375 27.59375 C 83.136719 27.472656 82.605469 27.332031 82.140625 27.175781 C 81.675781 27.023438 81.300781 26.824219 81.011719 26.574219 C 80.722656 26.328125 80.578125 26.011719 80.578125 25.621094 C 80.578125 25.289062 80.660156 25.027344 80.828125 24.832031 C 80.992188 24.636719 81.191406 24.488281 81.429688 24.386719 C 81.667969 24.28125 81.929688 24.214844 82.21875 24.183594 C 82.507812 24.152344 82.773438 24.136719 83.023438 24.136719 C 83.804688 24.136719 84.484375 24.289062 85.0625 24.585938 C 85.640625 24.882812 85.960938 25.453125 86.019531 26.296875 L 90.195312 26.296875 C 90.113281 25.3125 89.859375 24.492188 89.4375 23.84375 C 89.015625 23.195312 88.484375 22.675781 87.84375 22.285156 C 87.207031 21.894531 86.480469 21.617188 85.664062 21.453125 C 84.851562 21.289062 84.011719 21.207031 83.144531 21.207031 C 82.28125 21.207031 81.433594 21.285156 80.609375 21.4375 C 79.785156 21.59375 79.042969 21.859375 78.382812 22.242188 C 77.726562 22.621094 77.195312 23.140625 76.792969 23.800781 C 76.390625 24.457031 76.1875 25.300781 76.1875 26.328125 C 76.1875 27.027344 76.332031 27.621094 76.621094 28.101562 C 76.910156 28.585938 77.292969 28.988281 77.765625 29.308594 C 78.238281 29.625 78.78125 29.882812 79.390625 30.078125 C 79.996094 30.273438 80.621094 30.445312 81.257812 30.585938 C 82.824219 30.917969 84.046875 31.246094 84.921875 31.574219 C 85.800781 31.902344 86.238281 32.398438 86.238281 33.054688 C 86.238281 33.445312 86.144531 33.769531 85.960938 34.027344 C 85.773438 34.285156 85.542969 34.492188 85.261719 34.644531 C 84.984375 34.800781 84.675781 34.914062 84.335938 34.984375 C 83.996094 35.054688 83.671875 35.09375 83.363281 35.09375 C 82.929688 35.09375 82.511719 35.042969 82.109375 34.9375 C 81.707031 34.835938 81.351562 34.675781 81.042969 34.460938 C 80.734375 34.242188 80.480469 33.964844 80.285156 33.625 C 80.089844 33.289062 79.992188 32.882812 79.992188 32.40625 Z M 108.1875 37.59375 L 108.1875 21.640625 L 103.796875 21.640625 L 103.796875 30 C 103.796875 31.625 103.53125 32.792969 102.996094 33.503906 C 102.460938 34.214844 101.59375 34.566406 100.398438 34.566406 C 99.347656 34.566406 98.613281 34.242188 98.203125 33.597656 C 97.789062 32.949219 97.585938 31.964844 97.585938 30.648438 L 97.585938 21.640625 L 93.195312 21.640625 L 93.195312 31.453125 C 93.195312 32.4375 93.28125 33.339844 93.457031 34.152344 C 93.632812 34.964844 93.9375 35.652344 94.367188 36.21875 C 94.800781 36.785156 95.394531 37.222656 96.148438 37.53125 C 96.898438 37.839844 97.863281 37.992188 99.039062 37.992188 C 99.964844 37.992188 100.871094 37.789062 101.757812 37.375 C 102.644531 36.964844 103.367188 36.296875 103.921875 35.371094 L 104.015625 35.371094 L 104.015625 37.59375 Z M 111.652344 15.558594 L 111.652344 37.59375 L 116.042969 37.59375 L 116.042969 15.558594 Z M 125.070312 21.640625 L 125.070312 16.855469 L 120.679688 16.855469 L 120.679688 21.640625 L 118.019531 21.640625 L 118.019531 24.570312 L 120.679688 24.570312 L 120.679688 33.980469 C 120.679688 34.785156 120.8125 35.433594 121.082031 35.925781 C 121.351562 36.417969 121.714844 36.800781 122.179688 37.066406 C 122.644531 37.335938 123.179688 37.515625 123.789062 37.605469 C 124.394531 37.699219 125.039062 37.746094 125.71875 37.746094 C 126.152344 37.746094 126.59375 37.734375 127.050781 37.714844 C 127.503906 37.695312 127.914062 37.652344 128.285156 37.59375 L 128.285156 34.199219 C 128.078125 34.238281 127.863281 34.269531 127.636719 34.289062 C 127.410156 34.3125 127.171875 34.320312 126.925781 34.320312 C 126.183594 34.320312 125.6875 34.199219 125.441406 33.949219 C 125.195312 33.703125 125.070312 33.210938 125.070312 32.46875 L 125.070312 24.570312 L 128.285156 24.570312 L 128.285156 21.640625 Z M 130.203125 26.546875 C 130.265625 25.515625 130.523438 24.664062 130.976562 23.984375 C 131.429688 23.304688 132.007812 22.761719 132.707031 22.347656 C 133.40625 21.9375 134.195312 21.644531 135.070312 21.46875 C 135.949219 21.292969 136.828125 21.207031 137.714844 21.207031 C 138.519531 21.207031 139.332031 21.261719 140.15625 21.375 C 140.984375 21.488281 141.734375 21.710938 142.414062 22.039062 C 143.09375 22.367188 143.652344 22.828125 144.085938 23.414062 C 144.519531 24 144.734375 24.777344 144.734375 25.742188 L 144.734375 34.042969 C 144.734375 34.761719 144.773438 35.453125 144.859375 36.109375 C 144.941406 36.769531 145.085938 37.261719 145.289062 37.59375 L 140.839844 37.59375 C 140.757812 37.34375 140.6875 37.09375 140.636719 36.835938 C 140.585938 36.578125 140.550781 36.316406 140.527344 36.050781 C 139.828125 36.769531 139.003906 37.273438 138.054688 37.5625 C 137.109375 37.847656 136.140625 37.992188 135.148438 37.992188 C 134.386719 37.992188 133.675781 37.902344 133.015625 37.714844 C 132.355469 37.53125 131.78125 37.242188 131.285156 36.851562 C 130.789062 36.460938 130.402344 35.96875 130.125 35.371094 C 129.847656 34.773438 129.707031 34.0625 129.707031 33.242188 C 129.707031 32.335938 129.867188 31.589844 130.1875 31.003906 C 130.507812 30.417969 130.917969 29.949219 131.425781 29.601562 C 131.929688 29.25 132.507812 28.988281 133.15625 28.8125 C 133.804688 28.636719 134.460938 28.5 135.117188 28.398438 C 135.777344 28.292969 136.425781 28.210938 137.066406 28.148438 C 137.707031 28.089844 138.273438 27.996094 138.765625 27.871094 C 139.261719 27.75 139.652344 27.570312 139.941406 27.332031 C 140.230469 27.09375 140.363281 26.75 140.34375 26.296875 C 140.34375 25.824219 140.265625 25.449219 140.113281 25.171875 C 139.957031 24.894531 139.75 24.679688 139.492188 24.523438 C 139.234375 24.371094 138.9375 24.265625 138.597656 24.214844 C 138.257812 24.164062 137.890625 24.136719 137.5 24.136719 C 136.632812 24.136719 135.953125 24.324219 135.457031 24.695312 C 134.964844 25.0625 134.675781 25.679688 134.59375 26.546875 Z M 140.34375 29.785156 C 140.15625 29.949219 139.925781 30.078125 139.648438 30.171875 C 139.371094 30.261719 139.070312 30.339844 138.75 30.402344 C 138.433594 30.464844 138.097656 30.515625 137.746094 30.554688 C 137.394531 30.597656 137.046875 30.648438 136.695312 30.710938 C 136.367188 30.773438 136.039062 30.855469 135.722656 30.957031 C 135.402344 31.0625 135.125 31.199219 134.886719 31.375 C 134.648438 31.550781 134.460938 31.769531 134.316406 32.039062 C 134.171875 32.304688 134.097656 32.644531 134.097656 33.054688 C 134.097656 33.445312 134.171875 33.777344 134.316406 34.042969 C 134.460938 34.3125 134.65625 34.523438 134.902344 34.675781 C 135.148438 34.832031 135.4375 34.9375 135.769531 35 C 136.097656 35.0625 136.4375 35.09375 136.789062 35.09375 C 137.652344 35.09375 138.324219 34.949219 138.796875 34.660156 C 139.273438 34.371094 139.621094 34.027344 139.847656 33.625 C 140.074219 33.226562 140.214844 32.820312 140.265625 32.40625 C 140.316406 31.996094 140.34375 31.667969 140.34375 31.421875 Z M 148.136719 21.640625 L 148.136719 37.59375 L 152.523438 37.59375 L 152.523438 29.230469 C 152.523438 27.605469 152.792969 26.4375 153.328125 25.726562 C 153.863281 25.019531 154.730469 24.664062 155.925781 24.664062 C 156.976562 24.664062 157.710938 24.988281 158.121094 25.636719 C 158.535156 26.28125 158.738281 27.265625 158.738281 28.582031 L 158.738281 37.59375 L 163.128906 37.59375 L 163.128906 27.78125 C 163.128906 26.792969 163.042969 25.890625 162.867188 25.078125 C 162.691406 24.265625 162.386719 23.578125 161.957031 23.011719 C 161.523438 22.445312 160.929688 22.003906 160.175781 21.683594 C 159.425781 21.367188 158.460938 21.207031 157.285156 21.207031 C 156.359375 21.207031 155.453125 21.417969 154.566406 21.839844 C 153.679688 22.261719 152.957031 22.933594 152.402344 23.859375 L 152.308594 23.859375 L 152.308594 21.640625 Z M 148.136719 21.640625"/><path fill="#002E5B" d="M 21.3125 38.0625 L 22.164062 38 L 23.003906 37.894531 L 23.828125 37.746094 L 24.207031 37.660156 L 24.109375 37.632812 L 23.839844 37.550781 L 23.574219 37.460938 L 23.3125 37.363281 L 23.054688 37.261719 L 22.929688 37.207031 L 22.800781 37.152344 L 22.554688 37.035156 L 22.3125 36.914062 L 22.074219 36.789062 L 21.839844 36.660156 L 21.609375 36.523438 L 21.386719 36.382812 L 21.167969 36.234375 L 20.957031 36.085938 L 20.746094 35.929688 L 20.542969 35.765625 L 20.34375 35.597656 L 20.152344 35.425781 L 19.960938 35.25 L 19.777344 35.066406 L 19.597656 34.878906 L 19.511719 34.785156 L 19.425781 34.6875 L 19.257812 34.488281 L 19.09375 34.289062 L 18.933594 34.082031 L 18.78125 33.875 L 18.632812 33.660156 L 18.488281 33.441406 L 18.351562 33.21875 L 18.214844 32.992188 L 18.089844 32.761719 L 17.964844 32.527344 L 17.847656 32.289062 L 17.734375 32.042969 L 17.625 31.796875 L 17.523438 31.542969 L 17.425781 31.289062 L 17.378906 31.160156 L 17.332031 31.027344 L 17.246094 30.765625 L 17.164062 30.5 L 17.089844 30.230469 L 17.019531 29.960938 L 16.957031 29.6875 L 16.898438 29.414062 L 16.84375 29.132812 L 16.800781 28.855469 L 16.757812 28.570312 L 16.722656 28.285156 L 16.695312 27.996094 L 16.671875 27.707031 L 16.65625 27.414062 L 16.644531 27.117188 L 16.636719 26.820312 L 16.636719 26.515625 L 16.644531 26.207031 L 16.65625 25.90625 L 16.671875 25.605469 L 16.695312 25.308594 L 16.722656 25.011719 L 16.757812 24.722656 L 16.84375 24.144531 L 16.898438 23.863281 L 16.957031 23.582031 L 17.019531 23.304688 L 17.089844 23.027344 L 17.164062 22.753906 L 17.246094 22.484375 L 17.332031 22.21875 L 17.425781 21.953125 L 17.523438 21.695312 L 17.625 21.4375 L 17.734375 21.1875 L 17.847656 20.941406 L 17.964844 20.695312 L 18.089844 20.457031 L 18.214844 20.222656 L 18.351562 19.992188 L 18.488281 19.765625 L 18.632812 19.542969 L 18.78125 19.328125 L 18.933594 19.113281 L 19.09375 18.902344 L 19.257812 18.699219 L 19.425781 18.496094 L 19.597656 18.300781 L 19.777344 18.109375 L 19.960938 17.921875 L 20.152344 17.742188 L 20.34375 17.566406 L 20.542969 17.398438 L 20.746094 17.230469 L 21.167969 16.917969 L 21.386719 16.769531 L 21.609375 16.625 L 21.839844 16.488281 L 22.074219 16.355469 L 22.3125 16.226562 L 22.554688 16.105469 L 22.800781 15.988281 L 22.929688 15.929688 L 23.054688 15.875 L 23.3125 15.769531 L 23.574219 15.671875 L 23.839844 15.582031 L 24.109375 15.496094 L 24.378906 15.421875 L 24.65625 15.351562 L 24.9375 15.289062 L 25.222656 15.230469 L 25.511719 15.183594 L 25.804688 15.140625 L 26.101562 15.105469 L 26.402344 15.078125 L 26.707031 15.058594 L 27.015625 15.042969 L 27.332031 15.035156 L 27.488281 15.035156 L 27.714844 15.039062 L 28.164062 15.054688 L 28.609375 15.085938 L 29.046875 15.136719 L 29.476562 15.203125 L 29.902344 15.285156 L 30.320312 15.382812 L 30.730469 15.496094 L 30.9375 15.558594 L 31.136719 15.628906 L 31.53125 15.773438 L 31.917969 15.933594 L 32.289062 16.109375 L 32.652344 16.300781 L 33.007812 16.507812 L 33.347656 16.726562 L 33.679688 16.964844 L 33.84375 17.085938 L 34 17.214844 L 34.308594 17.480469 L 34.601562 17.761719 L 34.878906 18.054688 L 35.144531 18.367188 L 35.394531 18.691406 L 35.632812 19.03125 L 35.855469 19.386719 L 35.960938 19.570312 L 36.0625 19.757812 L 36.25 20.140625 L 36.421875 20.539062 L 36.570312 20.949219 L 36.703125 21.375 L 36.816406 21.8125 L 36.910156 22.261719 L 36.980469 22.726562 L 37.011719 22.964844 L 32.3125 22.964844 L 32.296875 22.863281 L 32.253906 22.65625 L 32.203125 22.457031 L 32.144531 22.261719 L 32.074219 22.074219 L 31.996094 21.886719 L 31.90625 21.703125 L 31.808594 21.527344 L 31.753906 21.4375 L 31.699219 21.351562 L 31.585938 21.183594 L 31.464844 21.019531 L 31.335938 20.863281 L 31.199219 20.710938 L 31.058594 20.5625 L 30.910156 20.421875 L 30.753906 20.285156 L 30.671875 20.21875 L 30.589844 20.15625 L 30.421875 20.03125 L 30.25 19.914062 L 30.074219 19.804688 L 29.890625 19.703125 L 29.699219 19.609375 L 29.503906 19.519531 L 29.304688 19.4375 L 29.101562 19.367188 L 28.894531 19.300781 L 28.683594 19.246094 L 28.472656 19.203125 L 28.257812 19.164062 L 28.042969 19.136719 L 27.820312 19.117188 L 27.601562 19.109375 L 27.285156 19.109375 L 26.890625 19.128906 L 26.511719 19.171875 L 26.148438 19.230469 L 25.800781 19.308594 L 25.46875 19.40625 L 25.152344 19.527344 L 24.851562 19.664062 L 24.707031 19.742188 L 24.566406 19.820312 L 24.292969 19.992188 L 24.03125 20.179688 L 23.789062 20.378906 L 23.554688 20.589844 L 23.335938 20.816406 L 23.132812 21.054688 L 22.941406 21.308594 L 22.851562 21.4375 L 22.761719 21.574219 L 22.597656 21.847656 L 22.445312 22.132812 L 22.300781 22.425781 L 22.171875 22.730469 L 22.054688 23.039062 L 21.949219 23.363281 L 21.855469 23.691406 L 21.816406 23.859375 L 21.777344 24.03125 L 21.703125 24.371094 L 21.644531 24.71875 L 21.59375 25.066406 L 21.550781 25.417969 L 21.523438 25.769531 L 21.5 26.128906 L 21.492188 26.488281 L 21.492188 26.84375 L 21.5 27.1875 L 21.523438 27.527344 L 21.550781 27.867188 L 21.59375 28.207031 L 21.644531 28.542969 L 21.703125 28.875 L 21.777344 29.203125 L 21.855469 29.53125 L 21.949219 29.851562 L 22.054688 30.164062 L 22.171875 30.464844 L 22.300781 30.761719 L 22.445312 31.046875 L 22.597656 31.328125 L 22.761719 31.597656 L 22.851562 31.730469 L 22.941406 31.859375 L 23.132812 32.109375 L 23.335938 32.34375 L 23.554688 32.566406 L 23.789062 32.777344 L 24.03125 32.976562 L 24.292969 33.160156 L 24.566406 33.332031 L 24.707031 33.410156 L 24.851562 33.488281 L 25.152344 33.625 L 25.46875 33.746094 L 25.800781 33.84375 L 26.148438 33.921875 L 26.511719 33.980469 L 26.890625 34.019531 L 27.285156 34.039062 L 27.488281 34.042969 L 27.625 34.042969 L 27.898438 34.03125 L 28.160156 34.011719 L 28.414062 33.976562 L 28.664062 33.9375 L 28.902344 33.882812 L 29.136719 33.820312 L 29.363281 33.746094 L 29.578125 33.660156 L 29.789062 33.566406 L 29.992188 33.457031 L 30.183594 33.34375 L 30.371094 33.214844 L 30.550781 33.078125 L 30.722656 32.929688 L 30.886719 32.769531 L 30.964844 32.6875 L 31.042969 32.601562 L 31.191406 32.421875 L 31.335938 32.242188 L 31.46875 32.050781 L 31.59375 31.855469 L 31.710938 31.648438 L 31.824219 31.441406 L 31.925781 31.222656 L 32.023438 31 L 32.109375 30.769531 L 32.191406 30.53125 L 32.261719 30.289062 L 32.328125 30.035156 L 32.386719 29.78125 L 32.4375 29.515625 L 32.480469 29.246094 L 32.496094 29.105469 L 35.296875 29.105469 L 35.546875 28.621094 L 35.878906 27.878906 L 36.179688 27.121094 L 36.445312 26.34375 L 36.667969 25.550781 L 36.855469 24.742188 L 37.003906 23.917969 L 37.109375 23.082031 L 37.175781 22.234375 L 37.195312 21.375 L 37.175781 20.515625 L 37.109375 19.664062 L 37.003906 18.828125 L 36.855469 18.007812 L 36.667969 17.199219 L 36.445312 16.40625 L 36.179688 15.628906 L 35.878906 14.871094 L 35.546875 14.128906 L 35.175781 13.410156 L 34.773438 12.707031 L 34.335938 12.03125 L 33.871094 11.375 L 33.375 10.746094 L 32.847656 10.136719 L 32.292969 9.558594 L 31.710938 9.003906 L 31.101562 8.480469 L 30.472656 7.984375 L 29.8125 7.515625 L 29.136719 7.082031 L 28.433594 6.679688 L 27.710938 6.3125 L 26.96875 5.976562 L 26.210938 5.675781 L 25.429688 5.414062 L 24.636719 5.1875 L 23.828125 5.003906 L 23.003906 4.855469 L 22.164062 4.75 L 21.3125 4.683594 L 20.453125 4.664062 L 19.589844 4.683594 L 18.742188 4.75 L 17.902344 4.855469 L 17.078125 5.003906 L 16.269531 5.1875 L 15.472656 5.414062 L 14.695312 5.675781 L 13.933594 5.976562 L 13.191406 6.3125 L 12.472656 6.679688 L 11.769531 7.082031 L 11.089844 7.515625 L 10.433594 7.984375 L 9.800781 8.480469 L 9.195312 9.003906 L 8.613281 9.558594 L 8.058594 10.136719 L 7.53125 10.746094 L 7.035156 11.375 L 6.566406 12.03125 L 6.132812 12.707031 L 5.730469 13.410156 L 5.359375 14.128906 L 5.023438 14.871094 L 4.722656 15.628906 L 4.460938 16.40625 L 4.234375 17.199219 L 4.046875 18.007812 L 3.902344 18.828125 L 3.792969 19.664062 L 3.730469 20.515625 L 3.707031 21.375 L 3.730469 22.234375 L 3.792969 23.082031 L 3.902344 23.917969 L 4.046875 24.742188 L 4.234375 25.550781 L 4.460938 26.34375 L 4.722656 27.121094 L 5.023438 27.878906 L 5.359375 28.621094 L 5.730469 29.339844 L 6.132812 30.039062 L 6.566406 30.71875 L 7.035156 31.371094 L 7.53125 32.003906 L 8.058594 32.609375 L 8.613281 33.191406 L 9.195312 33.746094 L 9.800781 34.269531 L 10.433594 34.765625 L 11.089844 35.230469 L 11.769531 35.667969 L 12.472656 36.070312 L 13.191406 36.4375 L 13.933594 36.773438 L 14.695312 37.070312 L 15.472656 37.335938 L 16.269531 37.558594 L 17.078125 37.746094 L 17.902344 37.894531 L 18.742188 38 L 19.589844 38.0625 L 20.453125 38.085938 Z M 21.3125 38.0625"/></svg>